<svg width="392" height="479" viewBox="0 0 392 479" fill="none" xmlns="http://www.w3.org/2000/svg">
<g opacity="0.669945">
<path d="M59.8072 0.530884H88.0628L107.578 36.1781L90.0737 195.454H59.8072L41.0186 159.982L68.8865 159.939L88.0628 0.530884H59.8072L41.0186 159.939L68.8865 160.188L90.0737 195.454" stroke="#FF1557"/>
<path d="M117.795 142.482L268.131 203.231L262.034 231.369L110.019 173.035L117.379 142.482L156.86 131.531L309.696 190.592L304.171 219.705L262.366 231.369L268.558 203.231L309.381 190.793" stroke="#FF1557"/>
<path d="M11.7678 304.843L136.099 202.531L157.908 221.87L147.851 261.887L21.7432 364.174L1.01855 345.686L11.3054 305.47L31.9424 322.583L21.7432 363.088L32.8325 322.583L157.579 222.211" stroke="#FF1557"/>
<path d="M65.0186 404.574L72.3892 375.592L112.033 364.531L264.696 423.272L258.842 452.132L217.468 464.369L223.648 436.139L264.074 423.778L224.616 436.139L72.8779 375.976L65.2519 404.37L217.093 464.369" stroke="#FF1557"/>
<path d="M243.621 304.531L220.019 320.661L297.176 459.755L335.522 478.06L357.891 460.51L319.914 443.387L297.555 459.56L319.914 443.226L243.722 304.644L279.325 320.661L357.891 460.196" stroke="#FF1557"/>
<path d="M276.621 278.531L253.019 294.661L330.176 433.755L368.522 452.06L390.891 434.51L352.914 417.387L330.555 433.56L352.914 417.226L276.722 278.644L312.325 294.661L390.891 434.196" stroke="#FF1557"/>
</g>
</svg>
