<svg width="328" height="377" viewBox="0 0 328 377" fill="none" xmlns="http://www.w3.org/2000/svg">
<path opacity="0.899112" d="M52.1505 197.721L40.1385 187.223L75.7189 52.7205L87.7926 64.5714L164.039 72.3673L152.843 62.043L77.0523 52.9368L87.2506 64.4787L52.3367 197.104L157.613 210.597L184.864 106.837L164.332 72.6348" stroke="#FF1557"/>
<path opacity="0.899112" d="M111.15 246.721L99.1385 236.223L134.719 101.72L146.793 113.571L223.039 121.367L211.843 111.043L136.052 101.937L146.251 113.479L111.337 246.104L216.613 259.597L243.864 155.837L223.332 121.635" stroke="#FF1557"/>
<path opacity="0.899112" d="M164.15 304.721L152.138 294.223L187.719 159.72L199.793 171.571L276.039 179.367L264.843 169.043L189.052 159.937L199.251 171.479L164.337 304.104L269.613 317.597L296.864 213.837L276.332 179.635" stroke="#FF1557"/>
</svg>
