<svg width="447" height="403" viewBox="0 0 447 403" fill="none" xmlns="http://www.w3.org/2000/svg">
<g opacity="0.67">
<path fill-rule="evenodd" clip-rule="evenodd" d="M181.455 360.972C280.866 360.972 361.455 280.384 361.455 180.972C361.455 81.5611 280.866 0.972336 181.455 0.972336C82.0435 0.972336 1.45471 81.5611 1.45471 180.972C1.45471 280.384 82.0435 360.972 181.455 360.972Z" stroke="#FF1557"/>
<path fill-rule="evenodd" clip-rule="evenodd" d="M226.455 378.972C325.866 378.972 406.455 298.384 406.455 198.972C406.455 99.5611 325.866 18.9723 226.455 18.9723C127.043 18.9723 46.4547 99.5611 46.4547 198.972C46.4547 298.384 127.043 378.972 226.455 378.972Z" stroke="#FF1557"/>
<path fill-rule="evenodd" clip-rule="evenodd" d="M266.455 401.972C365.866 401.972 446.455 321.384 446.455 221.972C446.455 122.561 365.866 41.9723 266.455 41.9723C167.043 41.9723 86.4547 122.561 86.4547 221.972C86.4547 321.384 167.043 401.972 266.455 401.972Z" stroke="#FF1557"/>
</g>
</svg>
