<svg width="240" height="292" viewBox="0 0 240 292" fill="none" xmlns="http://www.w3.org/2000/svg">
<g opacity="0.67">
<path opacity="0.899112" fill-rule="evenodd" clip-rule="evenodd" d="M114.412 144.392L96.3963 123.886L99.6521 121.102L117.343 142.439L110.015 115.442L113.543 114.37L120.919 141.352L124.273 114.305L127.506 114.433L125.06 141.157L138.811 117.304L142.096 119.016L128.202 142.544L149.771 125.469L152.023 128.123L130.01 145.164L156.93 137.95L157.992 141.402L131.08 148.639L159.257 151.638L158.88 155.08L131.171 152.197L154.933 164.523L152.814 167.818L129.449 155.424L146.61 176.533L143.065 179.53L126.129 158.291L134.036 183.992L129.818 185.274L122.35 158.714L119.801 186.598L115.5 185.985L119.324 157.63L104.561 182.479L101.26 180.832L116.375 156.693L93.8178 174.849L91.4023 172.255L114.489 153.681L86.346 162.232L85.0301 157.954L113.419 150.205L84.1684 148.74L84.4289 144.328L112.528 147.306L88.2601 134.63L90.1597 130.984L114.412 144.392Z" fill="#FF1557"/>
<path opacity="0.899112" fill-rule="evenodd" clip-rule="evenodd" d="M185.753 212.297L167.737 191.79L170.992 189.006L188.683 210.343L181.355 183.347L184.883 182.275L192.259 209.257L195.614 182.209L198.846 182.338L196.401 209.062L210.151 185.209L213.436 186.921L199.542 210.448L221.111 193.374L223.364 196.027L201.351 213.068L228.27 205.855L229.332 209.307L202.42 216.544L230.597 219.542L230.22 222.984L202.512 220.101L226.274 232.428L224.154 235.722L200.79 223.328L217.95 244.437L214.405 247.434L197.47 226.195L205.376 251.897L201.158 253.178L193.69 226.619L191.141 254.503L186.84 253.89L190.664 225.534L175.902 250.384L172.601 248.736L187.715 224.597L165.158 242.753L162.743 240.16L185.829 221.585L157.686 230.136L156.37 225.859L184.76 218.109L155.509 216.645L155.769 212.233L183.868 215.211L159.6 202.535L161.5 198.889L185.753 212.297Z" fill="#FF1557"/>
<path opacity="0.899112" fill-rule="evenodd" clip-rule="evenodd" d="M40.0579 68.4992L22.0418 47.9924L25.2976 45.2086L42.9886 66.5456L35.6602 39.5492L39.1886 38.4771L46.5642 65.4591L49.9188 38.4113L53.1516 38.5398L50.7059 65.2639L64.4564 41.4107L67.7412 43.1232L53.8472 66.6504L75.416 49.5761L77.6687 52.2294L55.6559 69.2704L82.5752 62.0571L83.6372 65.5092L56.7252 72.7462L84.9026 75.7445L84.5251 79.1867L56.8168 76.3035L80.579 88.6303L78.4593 91.9246L55.0948 79.5307L72.2551 100.639L68.7102 103.636L51.7749 82.3974L59.6814 108.099L55.4634 109.38L47.9954 82.821L45.4461 110.705L41.1453 110.092L44.9691 81.7363L30.2068 106.586L26.9057 104.939L42.0204 80.7993L19.4633 98.9554L17.0478 96.3619L40.1343 77.7873L11.9915 86.3384L10.6756 82.0608L39.065 74.3114L9.8139 72.8467L10.0744 68.4351L38.1733 71.4128L13.9056 58.737L15.8052 55.0912L40.0579 68.4992Z" fill="#FF1557"/>
</g>
</svg>
