<svg width="76" height="74" viewBox="0 0 76 74" fill="none" xmlns="http://www.w3.org/2000/svg">
<path opacity="0.899112" fill-rule="evenodd" clip-rule="evenodd" d="M30.2924 31.0166L12.2763 10.5098L15.5321 7.72602L33.2231 29.063L25.8947 2.06657L29.4231 0.994487L36.7987 27.9765L40.1533 0.928743L43.386 1.05719L40.9404 27.7812L54.6909 3.92813L57.9756 5.64061L44.0817 29.1678L65.6505 12.0935L67.9032 14.7468L45.8904 31.7877L72.8097 24.5745L73.8717 28.0265L46.9597 35.2636L75.1371 38.2619L74.7596 41.7041L47.0513 38.8209L70.8135 51.1477L68.6938 54.442L45.3293 42.048L62.4896 63.1569L58.9447 66.1538L42.0094 44.9147L49.9158 70.6161L45.6979 71.8977L38.2299 45.3384L35.6806 73.2225L31.3798 72.6094L35.2036 44.2537L20.4413 69.1033L17.1402 67.4561L32.2549 43.3167L9.69782 61.4728L7.28229 58.8793L30.3688 40.3047L2.22597 48.8558L0.910071 44.5782L29.2995 36.8288L0.0483931 35.3641L0.30893 30.9525L28.4078 33.9302L4.14011 21.2544L6.03968 17.6086L30.2924 31.0166Z" fill="#FF1557"/>
</svg>
