<svg width="62" height="62" viewBox="0 0 62 62" fill="none" xmlns="http://www.w3.org/2000/svg">
  <rect width="61.7" height="61.7" fill="#FF1557" />
  <path fill-rule="evenodd" clip-rule="evenodd"
    d="M16.8565 50.713C18.4341 50.713 19.713 49.4341 19.713 47.8565C19.713 46.2789 18.4341 45 16.8565 45C15.2789 45 14 46.2789 14 47.8565C14 49.4341 15.2789 50.713 16.8565 50.713Z"
    fill="black" />
  <path fill-rule="evenodd" clip-rule="evenodd"
    d="M13 13V18.0054H34.39C37.3919 18.0054 39.8255 20.4389 39.8255 23.4409V24.3781C39.8255 27.311 37.4479 29.6886 34.515 29.6886V35.0542L35.0009 35.0505C36.2841 35.0408 37.5147 34.8122 38.6574 34.4002C41.2652 34.8827 43.2403 37.1689 43.2403 39.9164V40.1612C43.2403 42.9744 40.9598 45.2549 38.1466 45.2549H24V51H38.6762C44.7659 51 49.7027 46.0633 49.7027 39.9735C49.7027 35.8088 47.393 32.1805 43.9812 30.3047C45.2182 28.5223 45.9429 26.358 45.9429 24.0254C45.9429 17.9362 41.0066 13 34.9175 13H13ZM30.7922 28.7921C30.7922 25.5932 28.1989 23 25 23V34.9935C25 38.1924 27.5932 40.7856 30.7922 40.7856V28.7921Z"
    fill="white" />
</svg>
