<svg width="242" height="326" viewBox="0 0 242 326" fill="none" xmlns="http://www.w3.org/2000/svg">
<g opacity="0.8">
<path fill-rule="evenodd" clip-rule="evenodd" d="M118.374 322.713C183.258 323.845 236.111 310.153 236.426 292.13C236.741 274.107 184.397 258.578 119.514 257.445C54.6302 256.313 1.77665 270.005 1.46205 288.028C1.14745 306.052 53.4909 321.58 118.374 322.713Z" stroke="#FF1557"/>
<path fill-rule="evenodd" clip-rule="evenodd" d="M116.648 310.443C178.91 311.53 229.634 298.066 229.943 280.371C230.252 262.675 180.029 247.449 117.767 246.362C55.505 245.276 4.78128 258.74 4.47241 276.435C4.16353 294.131 54.3864 309.357 116.648 310.443Z" stroke="#FF1557"/>
<path fill-rule="evenodd" clip-rule="evenodd" d="M116.13 301.008C176.426 302.06 225.546 289.1 225.843 272.06C226.141 255.02 177.503 240.353 117.207 239.3C56.9111 238.248 7.79056 251.208 7.49312 268.248C7.19568 285.288 55.834 299.955 116.13 301.008Z" stroke="#FF1557"/>
<path fill-rule="evenodd" clip-rule="evenodd" d="M117.59 289.759C175.92 290.777 223.442 278.054 223.734 261.342C224.025 244.63 176.976 230.256 118.647 229.238C60.3172 228.22 12.7952 240.943 12.5035 257.655C12.2118 274.367 59.2608 288.741 117.59 289.759Z" stroke="#FF1557"/>
<path fill-rule="evenodd" clip-rule="evenodd" d="M117.906 279.116C173.614 280.089 218.997 268.126 219.271 252.396C219.546 236.667 174.608 223.128 118.9 222.155C63.192 221.183 17.8091 233.146 17.5345 248.875C17.26 264.604 62.1977 278.144 117.906 279.116Z" stroke="#FF1557"/>
<path fill-rule="evenodd" clip-rule="evenodd" d="M119.794 265.67C173.208 266.603 216.722 255.139 216.985 240.065C217.248 224.991 174.161 212.015 120.747 211.083C67.3324 210.15 23.8184 221.614 23.5553 236.688C23.2921 251.762 66.3796 264.738 119.794 265.67Z" stroke="#FF1557"/>
<path fill-rule="evenodd" clip-rule="evenodd" d="M118.254 253.421C169.703 254.319 211.618 243.093 211.875 228.347C212.133 213.601 170.635 200.919 119.187 200.021C67.7386 199.122 25.823 210.349 25.5656 225.095C25.3082 239.841 66.8064 252.523 118.254 253.421Z" stroke="#FF1557"/>
<path fill-rule="evenodd" clip-rule="evenodd" d="M117.923 242.007C168.06 242.882 208.903 232.168 209.149 218.077C209.395 203.987 168.95 191.854 118.813 190.979C68.676 190.104 27.8323 200.817 27.5863 214.908C27.3404 228.999 67.7853 241.131 117.923 242.007Z" stroke="#FF1557"/>
<path fill-rule="evenodd" clip-rule="evenodd" d="M118.997 231.581C167.496 232.428 207.002 222.223 207.237 208.787C207.471 195.352 168.345 183.774 119.846 182.927C71.3477 182.081 31.8416 192.286 31.607 205.722C31.3725 219.157 70.4984 230.735 118.997 231.581Z" stroke="#FF1557"/>
<path fill-rule="evenodd" clip-rule="evenodd" d="M117.624 221.54C164.812 222.364 203.255 212.14 203.49 198.704C203.724 185.269 165.661 173.71 118.473 172.886C71.2851 172.062 32.8416 182.286 32.607 195.722C32.3725 209.157 70.4359 220.716 117.624 221.54Z" stroke="#FF1557"/>
<path fill-rule="evenodd" clip-rule="evenodd" d="M120.031 212.53C166.891 213.348 205.069 203.119 205.303 189.684C205.538 176.248 167.74 164.693 120.88 163.876C74.0195 163.058 35.8416 173.286 35.607 186.722C35.3725 200.157 73.1702 211.712 120.031 212.53Z" stroke="#FF1557"/>
<path fill-rule="evenodd" clip-rule="evenodd" d="M120.437 203.519C166.97 204.332 204.882 194.098 205.117 180.663C205.351 167.227 167.819 155.677 121.286 154.865C74.7538 154.053 36.8416 164.286 36.607 177.722C36.3725 191.157 73.9046 202.707 120.437 203.519Z" stroke="#FF1557"/>
<path fill-rule="evenodd" clip-rule="evenodd" d="M121.458 191.333C167.991 192.145 205.898 182.177 206.127 169.07C206.356 155.962 168.819 144.677 122.286 143.865C75.7538 143.053 37.8462 153.02 37.6174 166.128C37.3886 179.236 74.9253 190.52 121.458 191.333Z" stroke="#FF1557"/>
<path fill-rule="evenodd" clip-rule="evenodd" d="M121.458 180.333C167.991 181.145 205.898 171.177 206.127 158.07C206.356 144.962 168.819 133.677 122.286 132.865C75.7538 132.053 37.8462 142.02 37.6174 155.128C37.3886 168.236 74.9253 179.52 121.458 180.333Z" stroke="#FF1557"/>
<path fill-rule="evenodd" clip-rule="evenodd" d="M122.458 170.333C168.991 171.145 206.898 161.177 207.127 148.07C207.356 134.962 169.819 123.677 123.286 122.865C76.7538 122.053 38.8462 132.02 38.6174 145.128C38.3886 158.236 75.9253 169.52 122.458 170.333Z" stroke="#FF1557"/>
<path fill-rule="evenodd" clip-rule="evenodd" d="M121.051 159.343C167.912 160.161 206.085 150.198 206.314 137.09C206.542 123.983 168.74 112.693 121.88 111.876C75.0195 111.058 36.8462 121.02 36.6174 134.128C36.3886 147.236 74.1909 158.525 121.051 159.343Z" stroke="#FF1557"/>
<path fill-rule="evenodd" clip-rule="evenodd" d="M122.645 150.353C169.833 151.177 208.271 141.219 208.5 128.111C208.729 115.003 170.661 103.71 123.473 102.886C76.2851 102.062 37.8462 112.02 37.6174 125.128C37.3886 138.236 75.4566 149.53 122.645 150.353Z" stroke="#FF1557"/>
<path fill-rule="evenodd" clip-rule="evenodd" d="M122.404 142.571C170.575 143.412 209.815 133.202 210.05 119.766C210.285 106.331 171.424 94.7578 123.253 93.917C75.0821 93.0761 35.8416 103.286 35.607 116.722C35.3725 130.157 74.2328 141.73 122.404 142.571Z" stroke="#FF1557"/>
<path fill-rule="evenodd" clip-rule="evenodd" d="M121.964 132.633C172.101 133.508 212.936 123.326 213.17 109.891C213.405 96.4553 172.95 84.8542 122.813 83.9791C72.676 83.1039 31.8416 93.2861 31.607 106.722C31.3725 120.157 71.8267 131.758 121.964 132.633Z" stroke="#FF1557"/>
<path fill-rule="evenodd" clip-rule="evenodd" d="M120.296 122.048C171.744 122.946 213.65 112.251 213.896 98.1603C214.142 84.0695 172.635 71.9186 121.187 71.0205C69.7386 70.1225 27.8323 80.8174 27.5863 94.9083C27.3404 108.999 68.8479 121.15 120.296 122.048Z" stroke="#FF1557"/>
<path fill-rule="evenodd" clip-rule="evenodd" d="M122.2 112.66C175.287 113.587 218.535 102.118 218.799 87.0439C219.062 71.97 176.24 58.9989 123.153 58.0723C70.0668 57.1457 26.8184 68.6143 26.5553 83.6883C26.2921 98.7622 69.114 111.733 122.2 112.66Z" stroke="#FF1557"/>
<path fill-rule="evenodd" clip-rule="evenodd" d="M123.167 102.712C177.892 103.667 222.469 92.2214 222.732 77.1475C222.995 62.0735 178.845 49.0793 124.12 48.1241C69.395 47.1689 24.8184 58.6143 24.5553 73.6883C24.2921 88.7622 68.4422 101.756 123.167 102.712Z" stroke="#FF1557"/>
<path fill-rule="evenodd" clip-rule="evenodd" d="M123.893 94.9812C181.24 95.9822 227.946 84.3082 228.215 68.9065C228.484 53.5049 182.213 40.2079 124.867 39.2069C67.5202 38.206 20.8137 49.88 20.5449 65.2816C20.2761 80.6833 66.5467 93.9802 123.893 94.9812Z" stroke="#FF1557"/>
<path fill-rule="evenodd" clip-rule="evenodd" d="M122.15 87.8212C182.446 88.8737 231.562 76.1788 231.854 59.4663C232.146 42.7539 183.503 28.3526 123.207 27.3002C62.9111 26.2477 13.7952 38.9426 13.5035 55.655C13.2118 72.3674 61.8547 86.7687 122.15 87.8212Z" stroke="#FF1557"/>
<path fill-rule="evenodd" clip-rule="evenodd" d="M124.648 78.4434C186.91 79.5302 237.634 66.0661 237.943 48.3706C238.252 30.6751 188.029 15.4491 125.767 14.3623C63.505 13.2755 12.7813 26.7395 12.4724 44.435C12.1635 62.1305 62.3864 77.3566 124.648 78.4434Z" stroke="#FF1557"/>
<path fill-rule="evenodd" clip-rule="evenodd" d="M121.781 68.7026C186.337 69.8294 238.925 56.1322 239.239 38.109C239.554 20.0858 187.476 4.56163 122.92 3.4348C58.3645 2.30797 5.77665 16.0052 5.46205 34.0284C5.14745 52.0516 57.2253 67.5757 121.781 68.7026Z" stroke="#FF1557"/>
</g>
</svg>
